<mxfile host="app.diagrams.net" modified="2021-06-10T10:00:49.553Z" agent="5.0 (Macintosh)" etag="93KAjeHXedC9BpIZN7TZ" version="14.7.6" type="github">
  <diagram name="Page-1" id="c7488fd3-1785-93aa-aadb-54a6760d102a">
    <mxGraphModel dx="728" dy="365" grid="1" gridSize="10" guides="1" tooltips="1" connect="1" arrows="1" fold="1" page="1" pageScale="1" pageWidth="1100" pageHeight="850" background="none" math="0" shadow="0">
      <root>
        <mxCell id="0" />
        <mxCell id="1" parent="0" />
        <object label="Заказчик" id="2b4e8129b02d487f-1">
          <mxCell style="swimlane;html=1;childLayout=stackLayout;horizontal=1;startSize=20;horizontalStack=0;rounded=0;shadow=0;labelBackgroundColor=none;strokeWidth=1;fontFamily=Verdana;fontSize=12;align=center;" parent="1" vertex="1">
            <mxGeometry x="150" y="70" width="690" height="290" as="geometry" />
          </mxCell>
        </object>
        <mxCell id="2b4e8129b02d487f-2" value="&lt;div style=&quot;font-size: 13px;&quot;&gt;Сайт&lt;/div&gt;" style="swimlane;html=1;startSize=20;horizontal=0;fontSize=13;" parent="2b4e8129b02d487f-1" vertex="1">
          <mxGeometry y="20" width="690" height="250" as="geometry">
            <mxRectangle y="20" width="680" height="20" as="alternateBounds" />
          </mxGeometry>
        </mxCell>
        <mxCell id="2b4e8129b02d487f-5" value="" style="ellipse;whiteSpace=wrap;html=1;rounded=0;shadow=0;labelBackgroundColor=none;strokeWidth=1;fontFamily=Verdana;fontSize=8;align=center;" parent="2b4e8129b02d487f-2" vertex="1">
          <mxGeometry x="50" y="103.5" width="30" height="30" as="geometry" />
        </mxCell>
        <mxCell id="2b4e8129b02d487f-6" value="&lt;div&gt;Проверить &lt;br&gt;&lt;/div&gt;&lt;div&gt;данные&lt;/div&gt;" style="rounded=1;whiteSpace=wrap;html=1;shadow=0;labelBackgroundColor=none;strokeWidth=1;fontFamily=Verdana;fontSize=12;align=center;" parent="2b4e8129b02d487f-2" vertex="1">
          <mxGeometry x="100" y="93.5" width="80" height="50" as="geometry" />
        </mxCell>
        <mxCell id="2b4e8129b02d487f-20" style="edgeStyle=orthogonalEdgeStyle;rounded=0;html=1;labelBackgroundColor=none;startArrow=none;startFill=0;startSize=5;endArrow=classicThin;endFill=1;endSize=5;jettySize=auto;orthogonalLoop=1;strokeWidth=1;fontFamily=Verdana;fontSize=8" parent="2b4e8129b02d487f-2" source="2b4e8129b02d487f-7" target="2b4e8129b02d487f-8" edge="1">
          <mxGeometry relative="1" as="geometry" />
        </mxCell>
        <mxCell id="2b4e8129b02d487f-7" value="" style="rounded=1;whiteSpace=wrap;html=1;shadow=0;labelBackgroundColor=none;strokeWidth=1;fontFamily=Verdana;fontSize=8;align=center;" parent="2b4e8129b02d487f-2" vertex="1">
          <mxGeometry x="350" y="119.99999999999997" width="70" height="37" as="geometry" />
        </mxCell>
        <mxCell id="2b4e8129b02d487f-8" value="" style="ellipse;whiteSpace=wrap;html=1;rounded=0;shadow=0;labelBackgroundColor=none;strokeWidth=2;fontFamily=Verdana;fontSize=8;align=center;" parent="2b4e8129b02d487f-2" vertex="1">
          <mxGeometry x="330" y="60" width="30" height="30" as="geometry" />
        </mxCell>
        <mxCell id="2b4e8129b02d487f-22" style="edgeStyle=orthogonalEdgeStyle;rounded=0;html=1;entryX=0;entryY=0.5;labelBackgroundColor=none;startArrow=none;startFill=0;startSize=5;endArrow=classicThin;endFill=1;endSize=5;jettySize=auto;orthogonalLoop=1;strokeWidth=1;fontFamily=Verdana;fontSize=8" parent="2b4e8129b02d487f-2" source="2b4e8129b02d487f-9" target="2b4e8129b02d487f-10" edge="1">
          <mxGeometry relative="1" as="geometry" />
        </mxCell>
        <mxCell id="2b4e8129b02d487f-9" value="" style="rounded=1;whiteSpace=wrap;html=1;shadow=0;labelBackgroundColor=none;strokeWidth=1;fontFamily=Verdana;fontSize=8;align=center;" parent="2b4e8129b02d487f-2" vertex="1">
          <mxGeometry x="420" y="56.49999999999997" width="70" height="37" as="geometry" />
        </mxCell>
        <mxCell id="2b4e8129b02d487f-23" style="edgeStyle=orthogonalEdgeStyle;rounded=0;html=1;labelBackgroundColor=none;startArrow=none;startFill=0;startSize=5;endArrow=classicThin;endFill=1;endSize=5;jettySize=auto;orthogonalLoop=1;strokeWidth=1;fontFamily=Verdana;fontSize=8" parent="2b4e8129b02d487f-2" source="2b4e8129b02d487f-10" target="2b4e8129b02d487f-11" edge="1">
          <mxGeometry relative="1" as="geometry" />
        </mxCell>
        <mxCell id="2b4e8129b02d487f-10" value="" style="shape=mxgraph.bpmn.shape;html=1;verticalLabelPosition=bottom;labelBackgroundColor=#ffffff;verticalAlign=top;perimeter=rhombusPerimeter;background=gateway;outline=none;symbol=parallelGw;rounded=1;shadow=0;strokeWidth=1;fontFamily=Verdana;fontSize=8;align=center;" parent="2b4e8129b02d487f-2" vertex="1">
          <mxGeometry x="550" y="60" width="30" height="30" as="geometry" />
        </mxCell>
        <mxCell id="2b4e8129b02d487f-11" value="" style="ellipse;whiteSpace=wrap;html=1;rounded=0;shadow=0;labelBackgroundColor=none;strokeWidth=2;fontFamily=Verdana;fontSize=8;align=center;" parent="2b4e8129b02d487f-2" vertex="1">
          <mxGeometry x="610" y="60" width="30" height="30" as="geometry" />
        </mxCell>
        <mxCell id="h2x-6CI9Ihy8LsGusNlG-75" value="Получен запрос о регистрации" style="text;html=1;strokeColor=none;fillColor=none;align=center;verticalAlign=middle;whiteSpace=wrap;rounded=0;fontSize=12;" vertex="1" parent="2b4e8129b02d487f-2">
          <mxGeometry x="80" y="20" width="50" height="20" as="geometry" />
        </mxCell>
        <mxCell id="h2x-6CI9Ihy8LsGusNlG-86" value="" style="endArrow=classic;html=1;fontSize=12;exitX=1;exitY=0.5;exitDx=0;exitDy=0;entryX=0;entryY=0.5;entryDx=0;entryDy=0;" edge="1" parent="2b4e8129b02d487f-2" source="2b4e8129b02d487f-5" target="2b4e8129b02d487f-6">
          <mxGeometry width="50" height="50" relative="1" as="geometry">
            <mxPoint x="320" y="180" as="sourcePoint" />
            <mxPoint x="370" y="130" as="targetPoint" />
          </mxGeometry>
        </mxCell>
        <mxCell id="h2x-6CI9Ihy8LsGusNlG-91" value="Получен запрос о регистрации" style="text;html=1;strokeColor=none;fillColor=none;align=center;verticalAlign=middle;whiteSpace=wrap;rounded=0;fontSize=12;" vertex="1" parent="2b4e8129b02d487f-2">
          <mxGeometry x="80" y="170" width="80" height="50" as="geometry" />
        </mxCell>
        <mxCell id="h2x-6CI9Ihy8LsGusNlG-72" value="Исполнитель" style="swimlane;fontSize=12;" vertex="1" parent="1">
          <mxGeometry x="150" y="340" width="690" height="20" as="geometry" />
        </mxCell>
        <mxCell id="h2x-6CI9Ihy8LsGusNlG-87" value="" style="endArrow=classic;html=1;dashed=1;fontSize=12;entryX=0.5;entryY=0;entryDx=0;entryDy=0;" edge="1" parent="1" target="2b4e8129b02d487f-5">
          <mxGeometry width="50" height="50" relative="1" as="geometry">
            <mxPoint x="210" y="90" as="sourcePoint" />
            <mxPoint x="520" y="220" as="targetPoint" />
          </mxGeometry>
        </mxCell>
        <mxCell id="h2x-6CI9Ihy8LsGusNlG-90" value="" style="endArrow=classic;html=1;dashed=1;fontSize=12;entryX=0.5;entryY=1;entryDx=0;entryDy=0;" edge="1" parent="1" target="2b4e8129b02d487f-5">
          <mxGeometry width="50" height="50" relative="1" as="geometry">
            <mxPoint x="215" y="340" as="sourcePoint" />
            <mxPoint x="215" y="220" as="targetPoint" />
          </mxGeometry>
        </mxCell>
      </root>
    </mxGraphModel>
  </diagram>
</mxfile>
